<svg xmlns="http://www.w3.org/2000/svg" width="200"  height="50" viewBox="800.13 44.14 700.49 507.42" fill="currentColor">
	<style>
		.logo-text {
			font-family: Arial, Helvetica, sans-serif;
		    font-weight:normal;
		    font-style: normal;
		    font-size: 300px;
		}
	</style>
	<g>
		<path d="M575.57,259.82c42.21-96.96,47.62-180.69,7.24-207.26c-36.12-23.77-99.76,4.22-164.58,65.6
			c-66.94-59.07-131.53-84.8-166.79-59.78c-17.27,12.26-25.36,35.18-25.18,65.08c-29.74,3.16-51.61,13.77-61.86,32.3
			c-23.38,42.29,20.35,113.9,102.8,180.11c-42.2,96.96-47.61,180.69-7.24,207.26c36.11,23.77,99.75-4.22,164.57-65.6
			c66.94,59.06,131.52,84.8,166.79,59.78c17.27-12.26,25.36-35.17,25.17-65.08c29.74-3.17,51.61-13.77,61.86-32.31
			C701.75,397.63,658.02,326.03,575.57,259.82z M560,100.54c32.97,21.7,34.31,82.27,8.86,153.97
			c-20.41-15.92-43.05-31.46-67.49-46.15c-21.02-27.46-42.98-52.13-64.96-73.39C484.82,96.51,531.23,81.61,560,100.54z M593.95,439.7
			c-31.46,6.37-74.46,1.8-121.94-13.02c16.34-19.62,32.33-41.14,47.54-64.25c13.44-20.43,25.49-40.93,36.1-61.14
			C582.18,353.31,595.63,402.69,593.95,439.7z M514.4,362.12c-15.17,23.05-31.42,44.11-48.08,62.75
			c-29.08-9.5-59.7-22.78-90.29-39.69c-7.52-4.16-14.85-8.44-21.99-12.81c-3.85-5.05-7.66-10.22-11.4-15.5
			c-13.61-19.18-25.58-38.55-35.83-57.65c8.95-17.65,19.3-35.54,31-53.31c20.19-30.67,42.27-57.8,64.71-80.41
			c24.68,8.97,50.25,20.56,75.8,34.69c6.63,3.66,13.1,7.42,19.43,11.26c5.87,7.43,11.65,15.13,17.3,23.09
			c14.22,20.04,26.66,40.3,37.21,60.24C541.86,316.93,529.21,339.62,514.4,362.12z M450.97,441.25c-5.29,5.37-10.59,10.49-15.9,15.34
			c-15.45-12.3-31.06-26.76-46.37-43.12C409.74,424.1,430.62,433.38,450.97,441.25z M308.95,341.44c-5.49-4.21-10.8-8.46-15.9-12.75
			c1.05-2.47,2.13-4.94,3.24-7.42C300.35,327.98,304.57,334.71,308.95,341.44z M264.23,144.94c30.58-5.19,71.21-0.65,115.92,13.05
			c-19.59,22.49-38.81,47.75-56.92,75.26c-9.81,14.9-18.87,29.84-27.18,44.68C271.98,227.22,260.72,179.8,264.23,144.94z
			 M407.35,160.69c7.42-7.24,14.86-13.98,22.27-20.18c20.21,16.9,40.59,37.44,60.08,60.98c-3.78-2.18-7.59-4.34-11.45-6.47
			C454.41,181.83,430.6,170.37,407.35,160.69z M517.22,229.84c-2.75-3.87-5.52-7.69-8.3-11.46c21.21,13.55,40.53,27.96,57.55,42.69
			c-3.41,9.12-7.24,18.4-11.49,27.79C543.78,269.3,531.18,249.51,517.22,229.84z M287.87,97.06c27.7-19.65,73.7-7.04,122.67,28.54
			c-8.39,8.28-16.78,17.09-25.12,26.42c-42.4-15.85-82.35-25.5-116.59-28.53C272.82,112.27,279.13,103.26,287.87,97.06z M214,174.83
			c3.71-6.7,8.98-12.32,15.58-16.89c7.18,41.36,25.86,90.91,54.51,142.33c-2.45,4.78-4.81,9.53-7.09,14.27
			C221.65,263.11,195,209.21,214,174.83z M292.21,507.48c-33.59-22.11-34.35-84.55-7.41-157.99c17.48,13.02,36.43,25.73,56.61,37.86
			c24.66,32.21,50.62,60.59,76.38,84.12C368.66,511.1,321.36,526.67,292.21,507.48z M569.82,494.33
			c-28.85,20.47-77.56,5.93-128.79-33.1c5.46-5.63,10.91-11.49,16.33-17.56c47.83,17.88,92.53,27.87,129.44,29.37
			C582.82,481.9,577.19,489.11,569.82,494.33z M640.34,410.54c-5.77,10.43-15.3,18.25-27.8,23.55
			c-7.62-40.6-26.05-88.75-53.85-138.65c4.99-9.74,9.63-19.4,13.93-28.94C631.16,319.2,659.88,375.18,640.34,410.54z"/>
		<path d="M458.07,216.15c-43.52-5.68-78.56,10.55-101.66,53.85c-3.46,6.49-5.61,13.28-6.61,20.17
			c10.45-0.09,21.81-0.44,33.28-1.2c0-0.69-0.04-1.37-0.02-2.07c2.09-67.51,98.64-81.16,97.15-32.29
			c-0.86,27.94-51.64,37.42-96.92,40.3c-12.11,0.77-23.81,1.07-34.07,1.13l-0.01,0c-20.84,0.12-35.7-0.78-35.7-0.78
			c12.63,2.54,24.5,4.63,35.66,6.33c12.9,1.96,24.84,3.38,35.91,4.35c101.89,8.94,128.89-20.86,131.24-31.81
			C519.81,257.91,501.58,221.83,458.07,216.15z"/>
		<path d="M389.11,317.29c-8.81-0.69-18.17-1.66-28.16-2.96c-0.01,0,0,0-0.01,0c-3.4-0.44-6.88-0.94-10.4-1.45
			c4.22,33.31,32.6,59.27,73.73,64.64c63.75,8.32,90.46-45.24,90.46-45.24C475.24,368.8,409.25,359.91,389.11,317.29z"/>
	</g>
	<text class="logo-text" x="800" y="420">
		Enigma UI
	</text>

</svg>


